<?xml version="1.0" encoding="UTF-8" standalone="no"?>
<svg
   xmlns:dc="http://purl.org/dc/elements/1.1/"
   xmlns:cc="http://creativecommons.org/ns#"
   xmlns:rdf="http://www.w3.org/1999/02/22-rdf-syntax-ns#"
   xmlns:svg="http://www.w3.org/2000/svg"
   xmlns="http://www.w3.org/2000/svg"
   xmlns:xlink="http://www.w3.org/1999/xlink"
   xmlns:sodipodi="http://sodipodi.sourceforge.net/DTD/sodipodi-0.dtd"
   xmlns:inkscape="http://www.inkscape.org/namespaces/inkscape"
   viewBox="0 0 64 64"
   width="64px"
   height="64px"
   version="1.1"
   id="svg23"
   sodipodi:docname="discord.svg"
   inkscape:version="1.0.1 (3bc2e813f5, 2020-09-07)">
  <metadata
     id="metadata29">
    <rdf:RDF>
      <cc:Work
         rdf:about="">
        <dc:format>image/svg+xml</dc:format>
        <dc:type
           rdf:resource="http://purl.org/dc/dcmitype/StillImage" />
        <dc:title></dc:title>
      </cc:Work>
    </rdf:RDF>
  </metadata>
  <defs
     id="defs27">
    <linearGradient
       inkscape:collect="always"
       xlink:href="#ojxs_RS1~BeeBtSHUxpmvb"
       id="linearGradient860"
       x1="43.171085"
       y1="29.719276"
       x2="36.550697"
       y2="39.666264"
       gradientUnits="userSpaceOnUse"
       spreadMethod="pad" />
    <linearGradient
       inkscape:collect="always"
       xlink:href="#ojxs_RS1~BeeBtSHUxpmvb"
       id="linearGradient860-0"
       x1="43.171085"
       y1="29.719276"
       x2="36.550697"
       y2="39.666264"
       gradientUnits="userSpaceOnUse"
       spreadMethod="pad"
       gradientTransform="translate(-36,-30)" />
    <linearGradient
       id="linearGradient887"
       x1="59.912254"
       x2="4.3941813"
       y1="10.961"
       y2="52.768673"
       gradientUnits="userSpaceOnUse"
       spreadMethod="reflect">
      <stop
         offset="0"
         stop-color="#1a6dff"
         id="stop9-0"
         style="stop-color:#03469d;stop-opacity:1" />
      <stop
         offset="1"
         stop-color="#c822ff"
         id="stop11-8"
         style="stop-color:#19ffff;stop-opacity:1" />
    </linearGradient>
    <linearGradient
       inkscape:collect="always"
       xlink:href="#ojxs_RS1~BeeBtSHUxpmvb"
       id="linearGradient889"
       gradientUnits="userSpaceOnUse"
       x1="27.373493"
       y1="30.843374"
       x2="21.281927"
       y2="38.168674"
       spreadMethod="pad" />
    <linearGradient
       inkscape:collect="always"
       xlink:href="#ojxs_RS1~BeeBtSHUxpmvb"
       id="linearGradient896"
       gradientUnits="userSpaceOnUse"
       x1="59.912254"
       y1="10.961"
       x2="4.3941813"
       y2="52.768673"
       spreadMethod="reflect" />
  </defs>
  <sodipodi:namedview
     pagecolor="#ffffff"
     bordercolor="#666666"
     borderopacity="1"
     objecttolerance="10"
     gridtolerance="10"
     guidetolerance="10"
     inkscape:pageopacity="0"
     inkscape:pageshadow="2"
     inkscape:window-width="1920"
     inkscape:window-height="1001"
     id="namedview25"
     showgrid="false"
     inkscape:zoom="4.5851455"
     inkscape:cx="30.534373"
     inkscape:cy="8.1373882"
     inkscape:window-x="-9"
     inkscape:window-y="-9"
     inkscape:window-maximized="1"
     inkscape:current-layer="svg23" />
  <linearGradient
     id="ojxs_RS1~BeeBtSHUxpmva"
     x1="39.938"
     x2="39.938"
     y1="30"
     y2="39"
     gradientUnits="userSpaceOnUse"
     spreadMethod="reflect"
     xlink:href="#ojxs_RS1~BeeBtSHUxpmvb">
    <stop
       offset="0"
       stop-color="#6dc7ff"
       id="stop2" />
    <stop
       offset="1"
       stop-color="#e6abff"
       id="stop4" />
  </linearGradient>
  <path
     fill="url(#ojxs_RS1~BeeBtSHUxpmva)"
     d="M39.938 30A3.938 4.5 0 1 0 39.938 39A3.938 4.5 0 1 0 39.938 30Z"
     id="path7"
     style="fill-opacity:1;fill:url(#linearGradient860)" />
  <linearGradient
     id="ojxs_RS1~BeeBtSHUxpmvb"
     x1="59.912254"
     x2="4.3941813"
     y1="10.961"
     y2="52.768673"
     gradientUnits="userSpaceOnUse"
     spreadMethod="reflect">
    <stop
       offset="0"
       stop-color="#1a6dff"
       id="stop9"
       style="stop-color:#03469d;stop-opacity:1" />
    <stop
       offset="1"
       stop-color="#c822ff"
       id="stop11"
       style="stop-color:#19ffff;stop-opacity:1" />
  </linearGradient>
  <path
     id="path14"
     style="fill:url(#linearGradient896)"
     d="M 24.873047 10.96875 C 24.536047 11.01175 16.551547 12.068422 11.685547 15.982422 C 9.2252053 18.255574 4.4191589 31.035573 4.0371094 42.560547 L 5.9453125 41.558594 L 6.0683594 41.699219 C 6.6579882 30.90542 11.135252 19.214747 12.992188 17.496094 C 16.539188 14.645094 22.272656 13.436172 24.347656 13.076172 C 24.480656 13.489172 24.628703 14.0565 24.720703 14.6875 C 21.729703 15.2665 18.446609 16.306391 15.474609 18.150391 C 15.004609 18.441391 14.861344 19.056391 15.152344 19.525391 C 15.444344 19.996391 16.058344 20.142609 16.527344 19.849609 C 21.927344 16.500609 28.528422 16 31.982422 16 C 35.449422 16 42.071656 16.499609 47.472656 19.849609 C 47.636656 19.951609 47.818047 20 47.998047 20 C 48.332047 20 48.660609 19.832344 48.849609 19.527344 C 49.141609 19.058344 48.997344 18.441391 48.527344 18.150391 C 45.484344 16.262391 42.110688 15.219437 39.054688 14.648438 C 39.147688 14.030437 39.293828 13.477266 39.423828 13.072266 C 41.532828 13.424266 47.433031 14.621172 50.957031 17.451172 C 52.983031 19.322172 57.917094 32.4025 57.996094 43.6875 C 55.171094 48.2925 47.352172 50.639891 44.451172 50.962891 L 41.890625 47.763672 C 47.525625 46.264672 50.458766 43.917438 50.634766 43.773438 C 51.060766 43.423437 51.121438 42.794187 50.773438 42.367188 C 50.424438 41.941187 49.795188 41.877609 49.367188 42.224609 C 49.308187 42.272609 43.364438 47 32.023438 47 C 20.692438 47 14.702859 42.281609 14.630859 42.224609 C 14.203859 41.876609 13.572609 41.940141 13.224609 42.369141 C 12.875609 42.797141 12.940141 43.426391 13.369141 43.775391 C 13.546141 43.919391 16.490188 46.256859 22.117188 47.755859 L 19.550781 50.964844 C 17.546924 50.742116 13.201784 49.5595 9.7753906 47.347656 L 7.7871094 48.392578 C 12.184882 51.585127 18.266662 52.945479 19.96875 53 L 20 53 C 20.303 53 20.59125 52.862 20.78125 52.625 L 24.275391 48.257812 C 26.518391 48.703813 29.097437 49 32.023438 49 C 34.934438 49 37.498469 48.706672 39.730469 48.263672 L 43.220703 52.625 C 43.409703 52.862 43.697 53 44 53 L 44.03125 53 C 46.30525 52.927 56.422188 50.505125 59.867188 44.453125 C 59.953187 44.303125 59.998047 44.131031 59.998047 43.957031 C 59.999047 32.104031 54.877672 18.3485 52.263672 15.9375 C 47.447672 12.0665 39.238625 11.013703 38.890625 10.970703 C 38.453625 10.913703 38.035469 11.151734 37.855469 11.552734 C 37.830469 11.607734 37.313125 12.783938 37.078125 14.335938 C 35.086125 14.073937 33.312422 14 31.982422 14 C 30.609422 14 28.766359 14.075375 26.693359 14.359375 C 26.460359 12.795375 25.937109 11.607734 25.912109 11.552734 C 25.732109 11.151734 25.314047 10.91575 24.873047 10.96875 z " />
  <linearGradient
     id="ojxs_RS1~BeeBtSHUxpmvc"
     x1="24"
     x2="24"
     y1="30"
     y2="39"
     gradientUnits="userSpaceOnUse"
     spreadMethod="reflect">
    <stop
       offset="0"
       stop-color="#6dc7ff"
       id="stop16" />
    <stop
       offset="1"
       stop-color="#e6abff"
       id="stop18" />
  </linearGradient>
  <path
     fill="url(#ojxs_RS1~BeeBtSHUxpmvc)"
     d="M24 30A4 4.5 0 1 0 24 39A4 4.5 0 1 0 24 30Z"
     id="path21"
     style="font-variation-settings:normal;opacity:1;vector-effect:none;fill:url(#linearGradient889);fill-opacity:1;stroke-width:1;stroke-linecap:butt;stroke-linejoin:miter;stroke-miterlimit:4;stroke-dasharray:none;stroke-dashoffset:0;stroke-opacity:1;stop-color:#000000;stop-opacity:1" />
</svg>
