<?xml version="1.0" encoding="UTF-8" standalone="no"?>
<svg
   xmlns:dc="http://purl.org/dc/elements/1.1/"
   xmlns:cc="http://creativecommons.org/ns#"
   xmlns:rdf="http://www.w3.org/1999/02/22-rdf-syntax-ns#"
   xmlns:svg="http://www.w3.org/2000/svg"
   xmlns="http://www.w3.org/2000/svg"
   xmlns:sodipodi="http://sodipodi.sourceforge.net/DTD/sodipodi-0.dtd"
   xmlns:inkscape="http://www.inkscape.org/namespaces/inkscape"
   width="500"
   height="500"
   viewBox="0 0 132.29167 132.29167"
   version="1.1"
   id="svg8"
   inkscape:export-filename="C:\Users\mtech\3D Objects\logo.png"
   inkscape:export-xdpi="96"
   inkscape:export-ydpi="96"
   inkscape:version="1.0.1 (3bc2e813f5, 2020-09-07)"
   sodipodi:docname="logo.svg">
  <defs
     id="defs2">
    <inkscape:path-effect
       effect="powerstroke"
       id="path-effect892"
       is_visible="true"
       lpeversion="1"
       offset_points="12,0.1322915"
       sort_points="true"
       interpolator_type="CubicBezierJohan"
       interpolator_beta="0.2"
       start_linecap_type="zerowidth"
       linejoin_type="extrp_arc"
       miter_limit="4"
       scale_width="1"
       end_linecap_type="zerowidth" />
    <inkscape:path-effect
       effect="bspline"
       id="path-effect890"
       is_visible="true"
       lpeversion="1"
       weight="33.333333"
       steps="2"
       helper_size="0"
       apply_no_weight="true"
       apply_with_weight="true"
       only_selected="false" />
    <inkscape:path-effect
       effect="powerstroke"
       id="path-effect38"
       is_visible="true"
       lpeversion="1"
       offset_points="12,0.1322915"
       sort_points="true"
       interpolator_type="CubicBezierJohan"
       interpolator_beta="0.2"
       start_linecap_type="zerowidth"
       linejoin_type="extrp_arc"
       miter_limit="4"
       scale_width="1"
       end_linecap_type="zerowidth" />
    <inkscape:path-effect
       effect="bspline"
       id="path-effect36"
       is_visible="true"
       lpeversion="1"
       weight="33.333333"
       steps="2"
       helper_size="0"
       apply_no_weight="true"
       apply_with_weight="true"
       only_selected="false" />
    <inkscape:path-effect
       effect="powerstroke"
       id="path-effect32"
       is_visible="true"
       lpeversion="1"
       offset_points="10,0.1322915"
       sort_points="true"
       interpolator_type="CubicBezierJohan"
       interpolator_beta="0.2"
       start_linecap_type="zerowidth"
       linejoin_type="extrp_arc"
       miter_limit="4"
       scale_width="1"
       end_linecap_type="zerowidth" />
    <inkscape:path-effect
       effect="powerstroke"
       id="path-effect26"
       is_visible="true"
       lpeversion="1"
       offset_points="17,0.1322915"
       sort_points="true"
       interpolator_type="CubicBezierJohan"
       interpolator_beta="0.2"
       start_linecap_type="zerowidth"
       linejoin_type="extrp_arc"
       miter_limit="4"
       scale_width="1"
       end_linecap_type="zerowidth" />
    <inkscape:path-effect
       effect="powerstroke"
       id="path-effect20"
       is_visible="true"
       lpeversion="1"
       offset_points="4,0.1322915"
       sort_points="true"
       interpolator_type="CubicBezierJohan"
       interpolator_beta="0.2"
       start_linecap_type="zerowidth"
       linejoin_type="extrp_arc"
       miter_limit="4"
       scale_width="1"
       end_linecap_type="zerowidth" />
  </defs>
  <sodipodi:namedview
     id="base"
     pagecolor="#ffffff"
     bordercolor="#666666"
     borderopacity="1.0"
     inkscape:pageopacity="0.0"
     inkscape:pageshadow="2"
     inkscape:zoom="1.4"
     inkscape:cx="216.58332"
     inkscape:cy="250.3275"
     inkscape:document-units="px"
     inkscape:current-layer="layer1"
     inkscape:document-rotation="0"
     showgrid="false"
     units="px"
     inkscape:window-width="1920"
     inkscape:window-height="1001"
     inkscape:window-x="-9"
     inkscape:window-y="-9"
     inkscape:window-maximized="1" />
  <metadata
     id="metadata5">
    <rdf:RDF>
      <cc:Work
         rdf:about="">
        <dc:format>image/svg+xml</dc:format>
        <dc:type
           rdf:resource="http://purl.org/dc/dcmitype/StillImage" />
        <dc:title></dc:title>
      </cc:Work>
    </rdf:RDF>
  </metadata>
  <g
     inkscape:label="Layer 1"
     inkscape:groupmode="layer"
     id="layer1">
    <circle
       style="fill:#003647;stroke-width:3.94143;stop-color:#000000"
       id="path10"
       cx="66.30587"
       cy="66.145836"
       r="66.145836" />
    <text
       xml:space="preserve"
       style="font-style:normal;font-variant:normal;font-weight:normal;font-stretch:normal;font-size:26.4583px;line-height:1.25;font-family:'Sansita Swashed';-inkscape-font-specification:'Sansita Swashed, @wght=600';font-variant-ligatures:normal;font-variant-caps:normal;font-variant-numeric:normal;font-variant-east-asian:normal;font-variation-settings:'wght' 600;stroke-width:0.264583;fill:#00a6ff;fill-opacity:1;"
       x="16.78924"
       y="73.620308"
       id="text14"><tspan
         sodipodi:role="line"
         id="tspan12"
         x="16.78924"
         y="73.620308"
         style="font-style:normal;font-variant:normal;font-weight:normal;font-stretch:normal;font-size:26.4583px;font-family:'Sansita Swashed';-inkscape-font-specification:'Sansita Swashed, @wght=600';font-variant-ligatures:normal;font-variant-caps:normal;font-variant-numeric:normal;font-variant-east-asian:normal;font-variation-settings:'wght' 600;stroke-width:0.264583;fill:#00a6ff;fill-opacity:1;">Littleson</tspan></text>
    <path
       style="fill:none;fill-opacity:1;fill-rule:nonzero;stroke:#ffffff;stroke-width:1.05833336;stroke-linecap:butt;stroke-linejoin:miter;stroke-miterlimit:4;stroke-dasharray:none;stroke-opacity:1"
       d="m 26.12852,51.905947 c 0.242979,-0.252405 0.554474,-0.554804 0.936856,-0.903146 0.359955,-0.327912 0.78495,-0.698528 1.272973,-1.104209 0.901546,-0.749431 2.044643,-1.640262 3.381848,-2.586933 2.351815,-1.664962 5.516766,-3.650986 8.918257,-5.140658 5.982941,-2.620208 12.734847,-3.704968 19.531798,-3.34354 3.023202,0.16076 5.960097,0.60552 8.668116,1.289609 2.580141,0.651785 4.925378,1.514766 6.869512,2.522902 1.875776,0.972689 3.354634,2.068674 4.544669,3.203015 1.157148,1.102992 2.021568,2.223113 2.713197,3.272542 0.675197,1.024495 1.172443,1.960918 1.453125,2.828338 0.138539,0.428144 0.22404,0.838571 0.252764,1.234377 0.02853,0.393137 0.0011,0.772368 -0.08639,1.141228 -0.08715,0.367445 -0.233978,0.725008 -0.438923,1.049713 -0.204129,0.32341 -0.465629,0.61382 -0.782886,0.848928 -0.316274,0.234379 -0.68873,0.414345 -1.116456,0.516792 -0.427273,0.102338 -0.911416,0.127718 -1.451613,0.05111 -0.541341,-0.07677 -1.140136,-0.256108 -1.787623,-0.509192 -0.64776,-0.25319 -1.340259,-0.578589 -2.067248,-0.944537 -1.459455,-0.734652 -3.053,-1.629824 -4.688973,-2.424235 -3.341289,-1.622496 -6.815427,-2.80513 -10.63662,-3.397849 -3.953991,-0.613317 -8.287028,-0.592722 -12.38965,-0.395198 -4.476193,0.21551 -8.675645,0.642849 -12.064256,1.230192 -3.698159,0.640998 -6.711059,1.530091 -8.802707,2.145281 -0.629792,0.185232 -1.182972,0.348524 -1.666008,0.468801 -0.249242,0.06206 -0.469846,0.110047 -0.660174,0.141325 -0.198162,0.03257 -0.356781,0.04586 -0.476907,0.0402 -0.06154,-0.0029 -0.109292,-0.01063 -0.145211,-0.02136 -0.01802,-0.0054 -0.0322,-0.01127 -0.04322,-0.0171 -0.01107,-0.0059 -0.01862,-0.01148 -0.02389,-0.0164 -0.0052,-0.0048 -0.0086,-0.0094 -0.01102,-0.01385 -0.0025,-0.0045 -0.0048,-0.01039 -0.0063,-0.01845 -0.0033,-0.01708 -0.0033,-0.04553 0.0086,-0.08947 0.01212,-0.04488 0.03518,-0.100488 0.07214,-0.167728 0.03779,-0.06876 0.08852,-0.146813 0.152912,-0.234378 0.135043,-0.183651 0.325401,-0.402716 0.569329,-0.656105 z m -0.190614,-0.183496 c -0.248034,0.257655 -0.447181,0.486086 -0.591874,0.682861 -0.06917,0.09407 -0.126763,0.182063 -0.17162,0.263674 -0.04346,0.07906 -0.07641,0.154735 -0.0957,0.226188 -0.01876,0.06946 -0.026,0.140055 -0.01308,0.207923 0.0064,0.03363 0.01767,0.06605 0.03437,0.09642 0.01651,0.03005 0.03754,0.05665 0.06227,0.07975 0.02429,0.02269 0.0516,0.04148 0.08068,0.05688 0.02869,0.0152 0.05938,0.02726 0.09132,0.0368 0.06247,0.01866 0.132775,0.02857 0.208498,0.03214 0.146724,0.0069 0.326028,-0.0095 0.53226,-0.04341 0.199976,-0.03286 0.428122,-0.08265 0.681199,-0.145662 0.489631,-0.121919 1.048781,-0.287022 1.676734,-0.471713 2.091348,-0.615102 5.091436,-1.500254 8.77323,-2.138415 3.375158,-0.585012 7.563358,-1.011476 12.031798,-1.226613 4.097275,-0.197266 8.409091,-0.216797 12.336373,0.392378 3.791461,0.588106 7.240392,1.761653 10.561603,3.374398 1.626498,0.78981 3.218082,1.683857 4.685583,2.42256 0.730186,0.367556 1.431037,0.697107 2.08989,0.954633 0.657728,0.257087 1.27759,0.444005 1.846793,0.524727 0.570363,0.08089 1.088172,0.05494 1.550393,-0.05577 0.462823,-0.110853 0.867824,-0.306201 1.212355,-0.56152 0.345128,-0.255762 0.628685,-0.571071 0.8491,-0.920284 0.22119,-0.350441 0.37903,-0.735276 0.472622,-1.129873 0.09416,-0.396986 0.123179,-0.803384 0.09284,-1.221435 -0.03051,-0.42043 -0.12098,-0.851851 -0.264921,-1.296687 -0.290954,-0.899166 -0.802196,-1.858055 -1.483937,-2.89248 -0.700059,-1.06222 -1.57689,-2.198763 -2.751564,-3.318461 -1.208149,-1.151607 -2.707466,-2.262188 -4.605421,-3.246378 -1.965473,-1.019202 -4.330476,-1.888747 -6.926511,-2.544547 -2.725298,-0.688454 -5.679224,-1.13566 -8.718856,-1.297293 -6.833297,-0.363361 -13.627005,0.726763 -19.65199,3.365385 -3.423382,1.499258 -6.604359,3.495862 -8.965005,5.167076 -1.342924,0.95072 -2.491436,1.845725 -3.398099,2.59941 -0.490824,0.40801 -0.918858,0.781249 -1.282024,1.112086 -0.385643,0.351313 -0.701447,0.657786 -0.94929,0.915242 z"
       id="path34"
       inkscape:path-effect="#path-effect36;#path-effect38"
       inkscape:original-d="m 22.017114,54.523068 c 6.047885,-4.818934 12.095503,-9.638129 18.142857,-14.457591 6.898468,-0.850199 13.796396,-1.700628 20.694198,-2.55134 5.544026,1.5122 11.087566,3.024077 16.630952,4.535715 2.110674,2.457159 4.220999,4.913956 6.331101,7.370535 0.630237,1.701192 1.260187,3.402053 1.889882,5.102681 -1.354178,1.354706 -2.708566,2.709092 -4.063244,4.063243 -3.086603,-1.98415 -6.173348,-3.968486 -9.260417,-5.953125 -3.464586,-1.196684 -6.9293,-2.393585 -10.394347,-3.590774 -4.252052,2.64e-4 -8.5042,2.64e-4 -12.756695,0 -4.252053,0.409747 -8.504201,0.819213 -12.756698,1.228423 -2.834613,0.819229 -5.669378,1.638162 -8.504465,2.456844 -1.984149,0.598739 -3.968485,1.197189 -5.953124,1.795389 z" />
    <path
       style="fill:none;fill-opacity:1;fill-rule:nonzero;stroke:#ffffff;stroke-width:1.05833336;stroke-linecap:butt;stroke-linejoin:miter;stroke-miterlimit:4;stroke-dasharray:none;stroke-opacity:1"
       d="m 59.381442,80.550379 c 0.247843,0.257456 0.563647,0.563929 0.94929,0.915242 0.363166,0.330837 0.7912,0.704076 1.282019,1.112081 0.906668,0.753689 2.055181,1.648695 3.398104,2.599414 2.360647,1.671214 5.541623,3.667818 8.964995,5.167073 6.024996,2.638626 12.818703,3.72875 19.651987,3.36539 3.039645,-0.161634 5.99357,-0.608839 8.718873,-1.297294 2.59603,-0.6558 4.96103,-1.525344 6.9265,-2.544544 1.89796,-0.984191 3.39728,-2.094773 4.60543,-3.246381 1.17467,-1.119699 2.05151,-2.256242 2.75156,-3.318462 0.68174,-1.034425 1.19299,-1.993315 1.48394,-2.892481 0.14394,-0.444836 0.23441,-0.876257 0.26492,-1.296683 0.0303,-0.418054 0.001,-0.824452 -0.0928,-1.221438 -0.0936,-0.394598 -0.25143,-0.779432 -0.47262,-1.129873 -0.22042,-0.349213 -0.50397,-0.664521 -0.8491,-0.92028 -0.34453,-0.255322 -0.74953,-0.450669 -1.21236,-0.561522 -0.46222,-0.110708 -0.98003,-0.136652 -1.55039,-0.05576 -0.5692,0.08072 -1.18907,0.26764 -1.84679,0.524727 -0.65886,0.257526 -1.35971,0.587076 -2.08989,0.954633 -1.46751,0.738702 -3.05909,1.632748 -4.68559,2.422559 -3.32121,1.612746 -6.77014,2.786291 -10.561601,3.374397 -3.927283,0.609175 -8.239098,0.589644 -12.33637,0.392378 -4.468442,-0.215137 -8.656642,-0.641601 -12.031794,-1.226612 -3.681801,-0.638162 -6.681889,-1.523314 -8.773237,-2.138416 -0.627953,-0.184691 -1.187103,-0.349794 -1.676734,-0.471713 -0.253077,-0.06302 -0.481223,-0.112799 -0.681199,-0.145662 -0.206232,-0.03389 -0.385536,-0.05032 -0.53226,-0.04341 -0.07572,0.0036 -0.146029,0.01348 -0.208498,0.03214 -0.03194,0.0095 -0.06262,0.02161 -0.09132,0.0368 -0.02908,0.0154 -0.05639,0.03419 -0.08068,0.05688 -0.02473,0.0231 -0.04575,0.04971 -0.06226,0.07975 -0.01669,0.03038 -0.02797,0.06279 -0.03437,0.09642 -0.01292,0.06787 -0.0057,0.138467 0.01308,0.207923 0.0193,0.07145 0.05225,0.147125 0.09571,0.226188 0.04486,0.08161 0.102451,0.169609 0.171619,0.263674 0.144693,0.196775 0.34384,0.425206 0.591874,0.682861 z m 0.190614,-0.183496 c -0.243928,-0.253389 -0.434286,-0.472454 -0.569329,-0.656105 -0.06439,-0.08756 -0.115118,-0.165618 -0.152912,-0.234378 -0.03696,-0.06724 -0.06002,-0.122846 -0.07214,-0.167728 -0.01187,-0.04394 -0.01185,-0.0724 -0.0086,-0.08947 0.0015,-0.0081 0.0038,-0.01393 0.0063,-0.01845 0.0024,-0.0045 0.0059,-0.009 0.01102,-0.01385 0.0053,-0.0049 0.01282,-0.01054 0.02389,-0.0164 0.01102,-0.0058 0.02519,-0.01172 0.04322,-0.0171 0.03592,-0.01073 0.08367,-0.01846 0.145211,-0.02136 0.120126,-0.0057 0.278745,0.0076 0.476907,0.0402 0.190328,0.03128 0.410932,0.07926 0.660174,0.141325 0.483036,0.120277 1.036216,0.283568 1.666008,0.468801 2.091648,0.61519 5.104548,1.504283 8.802701,2.145279 3.388618,0.587345 7.58807,1.014684 12.06426,1.230194 4.102624,0.197524 8.43566,0.218119 12.389651,-0.395198 3.821194,-0.592719 7.295326,-1.775352 10.636626,-3.397848 1.63597,-0.794412 3.22951,-1.689583 4.68897,-2.424235 0.72699,-0.365947 1.41949,-0.691346 2.06725,-0.944536 0.64748,-0.253083 1.24628,-0.432421 1.78762,-0.509192 0.5402,-0.07661 1.02434,-0.05123 1.45161,0.05111 0.42773,0.102446 0.80019,0.282412 1.11646,0.516788 0.31726,0.23511 0.57876,0.52552 0.78288,0.848929 0.20495,0.324704 0.35178,0.682267 0.43893,1.049713 0.0875,0.368859 0.11492,0.748091 0.0864,1.141224 -0.0287,0.39581 -0.11422,0.806237 -0.25276,1.23438 -0.28068,0.867421 -0.77793,1.803843 -1.45313,2.828339 -0.69162,1.049429 -1.55604,2.16955 -2.71319,3.272544 -1.19004,1.134341 -2.6689,2.230327 -4.54467,3.203014 -1.94414,1.008137 -4.28937,1.871118 -6.86952,2.522903 -2.708015,0.684089 -5.64491,1.128849 -8.668099,1.289607 -6.796964,0.361429 -13.548869,-0.723331 -19.5318,-3.343535 C 70.680499,88.612157 67.515548,86.626132 65.163733,84.961171 63.826528,84.0145 62.683431,83.123669 61.781891,82.374242 61.293862,81.968557 60.868867,81.597941 60.508912,81.270029 60.12653,80.921687 59.815035,80.619288 59.572056,80.366883 Z"
       id="path34-5"
       inkscape:path-effect="#path-effect890;#path-effect892"
       inkscape:original-d="m 55.46065,77.749762 c 6.047885,4.818934 12.095503,9.638129 18.142858,14.457591 6.898468,0.850199 13.796395,1.700628 20.694197,2.55134 5.544026,-1.5122 11.087565,-3.024077 16.630955,-4.535715 2.11067,-2.457159 4.221,-4.913956 6.3311,-7.370535 0.63024,-1.701192 1.26019,-3.402053 1.88988,-5.102681 -1.35418,-1.354706 -2.70856,-2.709092 -4.06324,-4.063243 -3.08661,1.98415 -6.17335,3.968486 -9.26042,5.953125 -3.46459,1.196684 -6.929301,2.393585 -10.394348,3.590774 -4.252053,-2.64e-4 -8.5042,-2.64e-4 -12.756694,0 C 78.422885,82.820671 74.170737,82.411205 69.91824,82.001995 67.083626,81.182766 64.248861,80.363833 61.413774,79.545151 59.429625,78.946412 57.445289,78.347962 55.46065,77.749762 Z" />
  </g>
</svg>
