<?xml version="1.0" encoding="UTF-8" standalone="no"?>
<svg
   xmlns:dc="http://purl.org/dc/elements/1.1/"
   xmlns:cc="http://creativecommons.org/ns#"
   xmlns:rdf="http://www.w3.org/1999/02/22-rdf-syntax-ns#"
   xmlns:svg="http://www.w3.org/2000/svg"
   xmlns="http://www.w3.org/2000/svg"
   xmlns:xlink="http://www.w3.org/1999/xlink"
   xmlns:sodipodi="http://sodipodi.sourceforge.net/DTD/sodipodi-0.dtd"
   xmlns:inkscape="http://www.inkscape.org/namespaces/inkscape"
   id="Layer_1"
   enable-background="new 0 0 100 100"
   xml:space="preserve"
   viewBox="0 0 100 100"
   version="1.1"
   y="0px"
   x="0px"
   sodipodi:docname="Music.svg"
   inkscape:version="1.0.1 (3bc2e813f5, 2020-09-07)"><defs
   id="defs9"><inkscape:path-effect
     effect="powerstroke"
     id="path-effect894"
     is_visible="true"
     lpeversion="1"
     offset_points="4,0.5"
     sort_points="true"
     interpolator_type="CubicBezierJohan"
     interpolator_beta="0.2"
     start_linecap_type="zerowidth"
     linejoin_type="extrp_arc"
     miter_limit="4"
     scale_width="1"
     end_linecap_type="zerowidth" /><inkscape:path-effect
     effect="powerstroke"
     id="path-effect888"
     is_visible="true"
     lpeversion="1"
     offset_points="4,0.5"
     sort_points="true"
     interpolator_type="CubicBezierJohan"
     interpolator_beta="0.2"
     start_linecap_type="zerowidth"
     linejoin_type="extrp_arc"
     miter_limit="4"
     scale_width="1"
     end_linecap_type="zerowidth" /><inkscape:path-effect
     effect="bspline"
     id="path-effect886"
     is_visible="true"
     lpeversion="1"
     weight="33.333333"
     steps="2"
     helper_size="0"
     apply_no_weight="true"
     apply_with_weight="true"
     only_selected="false" /><linearGradient
     inkscape:collect="always"
     id="linearGradient866"><stop
       style="stop-color:#03469d;stop-opacity:1"
       offset="0"
       id="stop862" /><stop
       style="stop-color:#19ffff;stop-opacity:1"
       offset="1"
       id="stop864" /></linearGradient><linearGradient
     inkscape:collect="always"
     xlink:href="#linearGradient866"
     id="linearGradient868"
     x1="92.519531"
     y1="3.9824219"
     x2="8.3154736"
     y2="100.26357"
     gradientUnits="userSpaceOnUse"
     gradientTransform="matrix(0.96123901,0,0,0.96152895,2.2526295,-2.6655027)" /></defs><sodipodi:namedview
   pagecolor="#ffffff"
   bordercolor="#666666"
   borderopacity="1"
   objecttolerance="10"
   gridtolerance="10"
   guidetolerance="10"
   inkscape:pageopacity="0"
   inkscape:pageshadow="2"
   inkscape:window-width="1920"
   inkscape:window-height="1001"
   id="namedview7"
   showgrid="false"
   inkscape:zoom="5.8689863"
   inkscape:cx="39.270701"
   inkscape:cy="40.860102"
   inkscape:window-x="-9"
   inkscape:window-y="-9"
   inkscape:window-maximized="1"
   inkscape:current-layer="Layer_1"
   inkscape:document-rotation="0" />
<path
   id="path914"
   style="color:#000000;font-style:normal;font-variant:normal;font-weight:normal;font-stretch:normal;font-size:medium;line-height:normal;font-family:sans-serif;font-variant-ligatures:normal;font-variant-position:normal;font-variant-caps:normal;font-variant-numeric:normal;font-variant-alternates:normal;font-variant-east-asian:normal;font-feature-settings:normal;font-variation-settings:normal;text-indent:0;text-align:start;text-decoration:none;text-decoration-line:none;text-decoration-style:solid;text-decoration-color:#000000;letter-spacing:normal;word-spacing:normal;text-transform:none;writing-mode:lr-tb;direction:ltr;text-orientation:mixed;dominant-baseline:auto;baseline-shift:baseline;text-anchor:start;white-space:normal;shape-padding:0;shape-margin:0;inline-size:0;clip-rule:nonzero;display:inline;overflow:visible;visibility:visible;opacity:1;isolation:auto;mix-blend-mode:normal;color-interpolation:sRGB;color-interpolation-filters:linearRGB;solid-color:#000000;solid-opacity:1;vector-effect:none;fill:url(#linearGradient868);fill-opacity:1;fill-rule:nonzero;stroke:#40ffff;stroke-width:2.30732;stroke-linecap:butt;stroke-linejoin:miter;stroke-miterlimit:4;stroke-dasharray:none;stroke-dashoffset:0;stroke-opacity:0;color-rendering:auto;image-rendering:auto;shape-rendering:auto;text-rendering:auto;enable-background:accumulate;stop-color:#000000;stop-opacity:1"
   d="M 88.155853,1.0998594 C 57.043195,0.82035404 32.094217,12.076687 32.094217,12.076687 l -0.679625,0.306114 -0.01877,59.624179 c -3.190083,-0.942937 -6.751651,-1.224109 -10.434699,-0.328648 -3.977687,0.966797 -7.377445,2.956024 -9.833925,5.530671 -3.208634,3.362981 -4.8181339,7.7906 -3.8036526,12.122399 0,0 0.9510621,0.790026 1.6428744,0.281214 0.6918127,-0.508813 0.4504487,-1.642754 0.4504487,-1.642754 -0.4457515,-3.207859 0.8173005,-6.484995 3.3774785,-9.168328 2.130632,-2.233123 5.147396,-4.014679 8.711228,-4.880886 3.827098,-0.930484 7.579848,-0.630091 10.618687,0.576543 l 1.578909,0.627247 0.01877,-61.214835 C 35.539492,13.112201 59.792154,2.7663511 89.993847,3.4867799 V 73.584488 l -0.002,0.101408 C 89.892607,79.067202 85.016262,84.54918 77.811172,86.300334 69.55949,88.305033 61.850138,84.623144 60.358676,78.478521 58.86628,72.332716 64.028573,65.523194 72.280291,63.518482 c 3.757027,-0.913187 7.437587,-0.637771 10.445964,0.51457 l 1.565768,0.599077 V 28.212344 l -1.231586,0.0845 C 79.107644,28.564082 75.062835,27.382577 71.123899,26.225436 67.184961,25.068292 63.342662,23.898877 59.673515,24.616001 47.020044,27.089088 39.386116,36.894273 39.386116,36.894273 l -0.245942,0.313624 v 45.520506 l 0.0074,0.06949 c 0.709454,5.809709 -4.331087,12.013517 -12.111235,13.904614 -3.242614,0.787528 -6.430968,0.692923 -9.176828,-0.09008 -1.77536,-0.506303 -3.338575,-1.304832 -4.64286,-2.319313 0,0 -0.815654,-0.699119 -1.689087,-0.03932 -0.873432,0.65978 -0.342281,1.36138 -0.342281,1.36138 1.673662,1.46286 3.74622,2.562404 6.041537,3.216984 3.150741,0.898562 6.735688,0.992287 10.355847,0.112682 8.627721,-2.097111 14.657902,-9.063291 13.864747,-16.285897 V 38.041724 c 0.640962,-0.786043 7.523557,-8.982513 18.669063,-11.160872 2.873706,-0.561657 6.425028,0.40342 10.357725,1.558729 3.569952,1.048745 7.456307,2.162758 11.510461,2.142782 V 61.548476 C 78.840882,60.655242 75.347742,60.398262 71.735875,61.276168 62.525728,63.513723 56.252821,71.346 58.117072,79.023137 c 1.863262,7.676394 11.028397,11.757075 20.238586,9.51951 6.876274,-1.671235 12.063876,-6.418653 13.509912,-11.951503 v 0 L 92.301177,1.2012707 91.185989,1.1637102 c -1.01583,-0.033789 -2.026522,-0.054834 -3.030155,-0.063851 z"
   sodipodi:nodetypes="sccccsczcsccccccscccccccsscccccsczcscccsscccccccccs" />
<metadata
   id="metadata4"><rdf:RDF><cc:Work><dc:format>image/svg+xml</dc:format><dc:type
         rdf:resource="http://purl.org/dc/dcmitype/StillImage" /><cc:license
         rdf:resource="http://creativecommons.org/licenses/publicdomain/" /><dc:publisher><cc:Agent
           rdf:about="http://openclipart.org/"><dc:title>Openclipart</dc:title></cc:Agent></dc:publisher></cc:Work><cc:License
       rdf:about="http://creativecommons.org/licenses/publicdomain/"><cc:permits
         rdf:resource="http://creativecommons.org/ns#Reproduction" /><cc:permits
         rdf:resource="http://creativecommons.org/ns#Distribution" /><cc:permits
         rdf:resource="http://creativecommons.org/ns#DerivativeWorks" /></cc:License></rdf:RDF></metadata></svg>
