<?xml version="1.0" encoding="UTF-8" standalone="no"?>
<svg
   xmlns:dc="http://purl.org/dc/elements/1.1/"
   xmlns:cc="http://creativecommons.org/ns#"
   xmlns:rdf="http://www.w3.org/1999/02/22-rdf-syntax-ns#"
   xmlns:svg="http://www.w3.org/2000/svg"
   xmlns="http://www.w3.org/2000/svg"
   xmlns:xlink="http://www.w3.org/1999/xlink"
   xmlns:sodipodi="http://sodipodi.sourceforge.net/DTD/sodipodi-0.dtd"
   xmlns:inkscape="http://www.inkscape.org/namespaces/inkscape"
   fill="#000000"
   viewBox="0 0 32 32"
   width="64px"
   height="64px"
   version="1.1"
   id="svg4"
   sodipodi:docname="patreon.svg"
   inkscape:version="1.0.1 (3bc2e813f5, 2020-09-07)">
  <metadata
     id="metadata10">
    <rdf:RDF>
      <cc:Work
         rdf:about="">
        <dc:format>image/svg+xml</dc:format>
        <dc:type
           rdf:resource="http://purl.org/dc/dcmitype/StillImage" />
        <dc:title></dc:title>
      </cc:Work>
    </rdf:RDF>
  </metadata>
  <defs
     id="defs8">
    <linearGradient
       inkscape:collect="always"
       xlink:href="#linearGradient946"
       id="linearGradient841"
       x1="4"
       y1="4"
       x2="27.655472"
       y2="21.834057"
       gradientUnits="userSpaceOnUse" />
    <linearGradient
       inkscape:collect="always"
       id="linearGradient946">
      <stop
         style="stop-color:#03469d;stop-opacity:1"
         offset="0"
         id="stop942" />
      <stop
         style="stop-color:#19ffff;stop-opacity:1"
         offset="1"
         id="stop944" />
    </linearGradient>
  </defs>
  <sodipodi:namedview
     pagecolor="#ffffff"
     bordercolor="#666666"
     borderopacity="1"
     objecttolerance="10"
     gridtolerance="10"
     guidetolerance="10"
     inkscape:pageopacity="0"
     inkscape:pageshadow="2"
     inkscape:window-width="1920"
     inkscape:window-height="1001"
     id="namedview6"
     showgrid="false"
     inkscape:zoom="9.1702911"
     inkscape:cx="34.107403"
     inkscape:cy="27.43087"
     inkscape:window-x="-9"
     inkscape:window-y="-9"
     inkscape:window-maximized="1"
     inkscape:current-layer="svg4" />
  <path
     d="M 4 4 L 4 28 L 11 28 L 11 4 L 4 4 z M 21.5 4 C 16.813 4 13 7.813 13 12.5 C 13 17.187 16.813 21 21.5 21 C 26.187 21 30 17.187 30 12.5 C 30 7.813 26.187 4 21.5 4 z M 6 6 L 9 6 L 9 26 L 6 26 L 6 6 z M 21.5 6 C 25.084 6 28 8.916 28 12.5 C 28 16.084 25.084 19 21.5 19 C 17.916 19 15 16.084 15 12.5 C 15 8.916 17.916 6 21.5 6 z"
     id="path2"
     style="fill-opacity:1;fill:url(#linearGradient841)" />
</svg>
