<?xml version="1.0" encoding="UTF-8" standalone="no"?>
<svg
   xmlns:dc="http://purl.org/dc/elements/1.1/"
   xmlns:cc="http://creativecommons.org/ns#"
   xmlns:rdf="http://www.w3.org/1999/02/22-rdf-syntax-ns#"
   xmlns:svg="http://www.w3.org/2000/svg"
   xmlns="http://www.w3.org/2000/svg"
   xmlns:xlink="http://www.w3.org/1999/xlink"
   xmlns:sodipodi="http://sodipodi.sourceforge.net/DTD/sodipodi-0.dtd"
   xmlns:inkscape="http://www.inkscape.org/namespaces/inkscape"
   width="24"
   height="24"
   fill-rule="evenodd"
   clip-rule="evenodd"
   version="1.1"
   id="svg4"
   sodipodi:docname="iconmonstr-gear-thin.svg"
   inkscape:version="1.0.1 (3bc2e813f5, 2020-09-07)">
  <metadata
     id="metadata10">
    <rdf:RDF>
      <cc:Work
         rdf:about="">
        <dc:format>image/svg+xml</dc:format>
        <dc:type
           rdf:resource="http://purl.org/dc/dcmitype/StillImage" />
      </cc:Work>
    </rdf:RDF>
  </metadata>
  <defs
     id="defs8">
    <linearGradient
       inkscape:collect="always"
       id="linearGradient839">
      <stop
         style="stop-color:#03469d;stop-opacity:1"
         offset="0"
         id="stop835" />
      <stop
         style="stop-color:#19ffff;stop-opacity:1"
         offset="1"
         id="stop837" />
    </linearGradient>
    <linearGradient
       inkscape:collect="always"
       xlink:href="#linearGradient839"
       id="linearGradient841"
       x1="19.142"
       y1="2.171"
       x2="5.7553854"
       y2="19.168758"
       gradientUnits="userSpaceOnUse"
       gradientTransform="translate(0.02044646)" />
  </defs>
  <sodipodi:namedview
     pagecolor="#ffffff"
     bordercolor="#666666"
     borderopacity="1"
     objecttolerance="10"
     gridtolerance="10"
     guidetolerance="10"
     inkscape:pageopacity="0"
     inkscape:pageshadow="2"
     inkscape:window-width="1920"
     inkscape:window-height="1001"
     id="namedview6"
     showgrid="false"
     inkscape:zoom="17.291667"
     inkscape:cx="14.02953"
     inkscape:cy="11.029067"
     inkscape:window-x="-9"
     inkscape:window-y="-9"
     inkscape:window-maximized="1"
     inkscape:current-layer="svg4" />
  <path
     id="path2"
     style="fill:url(#linearGradient841);fill-opacity:1"
     d="M 10.119141 0 C 9.4261411 1.939 9.33575 2.7110469 8.34375 3.1230469 C 7.34475 3.5350469 6.6199062 2.999875 4.8789062 2.171875 L 2.1914062 4.859375 C 3.0734063 6.712375 3.5535781 7.3332188 3.1425781 8.3242188 C 2.7315781 9.3152188 1.9255313 9.4196562 0.01953125 10.097656 L 0.01953125 13.902344 C 1.9505313 14.588344 2.7305781 14.684781 3.1425781 15.675781 C 3.5565781 16.675781 3.0644063 17.303625 2.1914062 19.140625 L 2.6445312 19.59375 L 3.6152344 19.152344 L 3.3984375 18.935547 C 3.9924375 17.724547 4.6493594 16.695969 4.0683594 15.292969 C 3.4893594 13.899969 2.2455312 13.611359 1.0195312 13.193359 L 1.0195312 10.806641 C 2.3325313 10.362641 3.4973594 10.082031 4.0683594 8.7070312 C 4.6503594 7.3010313 3.9724375 6.2394531 3.3984375 5.0644531 L 5.0859375 3.3789062 C 6.1129375 3.8799062 6.8093438 4.2714844 7.6523438 4.2714844 C 8.0113437 4.2714844 8.3635156 4.199875 8.7285156 4.046875 C 10.123515 3.468875 10.404125 2.231 10.828125 1 L 13.212891 1 C 13.656891 2.313 13.9385 3.475875 15.3125 4.046875 C 16.7335 4.635875 17.838078 3.9259063 18.955078 3.3789062 L 20.642578 5.0644531 C 20.030578 6.3124531 19.400656 7.3270313 19.972656 8.7070312 C 20.548656 10.097031 21.784531 10.385641 23.019531 10.806641 L 23.019531 13.193359 C 21.710531 13.629359 20.539656 13.923969 19.972656 15.292969 C 19.375656 16.734969 20.132625 17.886594 20.640625 18.933594 L 18.955078 20.621094 C 17.986078 20.145094 16.816312 19.332219 15.320312 19.949219 C 13.881313 20.548219 13.591891 21.896 13.212891 23 L 10.828125 23 C 10.383125 21.691 10.104562 20.525125 8.7265625 19.953125 C 7.4395625 19.418125 6.5359375 19.896094 5.0859375 20.621094 L 4.84375 20.380859 L 3.8730469 20.822266 L 4.8789062 21.828125 C 6.6139062 21.008125 7.3407031 20.457953 8.3457031 20.876953 C 9.3337031 21.286953 9.4381411 22.082 10.119141 24 L 13.921875 24 C 14.626875 22.02 14.719031 21.283047 15.707031 20.873047 C 16.696031 20.458047 17.434109 21.008125 19.162109 21.828125 L 21.849609 19.140625 C 20.939609 17.237625 20.493484 16.650781 20.896484 15.675781 C 21.307484 14.684781 22.113531 14.579344 24.019531 13.902344 L 24.019531 10.097656 C 22.088531 9.4106562 21.307484 9.3162188 20.896484 8.3242188 C 20.487484 7.3362188 20.971609 6.706375 21.849609 4.859375 L 19.162109 2.171875 C 17.404109 3.004875 16.696313 3.5390469 15.695312 3.1230469 C 14.709312 2.7140469 14.603875 1.918 13.921875 0 L 10.119141 0 z M 12.019531 7.6660156 C 9.6295317 7.6660156 7.6875 9.61 7.6875 12 C 7.6875 14.39 9.6295317 16.332031 12.019531 16.332031 C 14.409531 16.332031 16.353516 14.39 16.353516 12 C 16.353516 9.61 14.409531 7.6660156 12.019531 7.6660156 z M 12.019531 8.6660156 C 13.857531 8.6660156 15.353516 10.162 15.353516 12 C 15.353516 13.838 13.857531 15.332031 12.019531 15.332031 C 10.181531 15.332031 8.6875 13.838 8.6875 12 C 8.6875 10.162 10.181531 8.6660156 12.019531 8.6660156 z " />
</svg>
